<?xml version="1.0" encoding="iso-8859-1"?>
<!-- Generator: Adobe Illustrator 19.0.0, SVG Export Plug-In . SVG Version: 6.00 Build 0)  -->
<svg version="1.1" id="Capa_1" xmlns="http://www.w3.org/2000/svg" xmlns:xlink="http://www.w3.org/1999/xlink" x="0px" y="0px"
	 viewBox="0 0 511.998 511.998" style="enable-background:new 0 0 511.998 511.998;" xml:space="preserve">
<g>
	<g>
		<path d="M511.669,360.946c-3.283-24.981-10.21-49.153-20.41-71.818c8.143-9.04,12.703-20.747,12.703-33.128
			c0-27.345-22.247-49.593-49.593-49.593h-0.001c1.048-7.027,0.178-14.231-2.612-20.966c-2.757-6.657-7.166-12.314-12.784-16.528
			l0.476-1.149c8.37-20.212-1.262-43.465-21.472-51.836c-9.792-4.056-20.574-4.056-30.366,0
			c-9.791,4.056-17.416,11.681-21.472,21.473l-0.476,1.153c-0.958-0.136-1.916-0.23-2.874-0.296
			c-23.737-19.486-63.256-31.036-106.789-31.036s-83.051,11.549-106.789,31.035c-0.958,0.065-1.917,0.16-2.875,0.297l-0.477-1.153
			c-4.055-9.791-11.68-17.417-21.471-21.472s-20.575-4.055-30.366,0c-9.791,4.055-17.417,11.68-21.472,21.471
			c-4.056,9.791-4.056,20.575,0,30.366l0.48,1.159c-11.551,8.7-17.491,23.165-15.384,37.482c-0.006,0-0.012,0-0.018,0
			c-27.345,0-49.593,22.247-49.593,49.593c0,12.381,4.56,24.088,12.703,33.128c-9.131,20.291-15.626,41.794-19.244,63.999
			c-0.032,0.149-0.051,0.302-0.075,0.452c-0.395,2.449-0.767,4.902-1.091,7.367c-1.45,11.036,1.937,22.177,9.296,30.564
			c7.396,8.431,18.068,13.267,29.281,13.267h434.191c11.212,0,21.883-4.835,29.28-13.266
			C509.73,383.124,513.12,371.983,511.669,360.946z M454.369,226.243c16.406,0.001,29.755,13.349,29.755,29.757
			c0,4.584-1.041,9.018-2.99,13.016c-1.536-2.743-3.138-5.445-4.773-8.128c-0.499-0.82-0.993-1.643-1.502-2.458
			c-0.529-0.846-1.07-1.683-1.609-2.523c-0.584-0.913-1.168-1.824-1.764-2.73c-0.501-0.761-1.011-1.516-1.52-2.27
			c-0.672-0.997-1.348-1.992-2.034-2.98c-0.457-0.659-0.919-1.315-1.383-1.97c-0.791-1.117-1.591-2.227-2.4-3.331
			c-0.381-0.519-0.761-1.039-1.145-1.555c-0.983-1.322-1.982-2.634-2.991-3.939c-0.227-0.294-0.451-0.589-0.68-0.883
			c-2.609-3.341-5.295-6.628-8.072-9.845C452.291,226.298,453.328,226.243,454.369,226.243z M359.417,158.021
			c0.042-0.001,0.081-0.007,0.123-0.009c2.731-0.077,5.513,0.41,8.171,1.511c2.431,1.006,5.161,1.006,7.592,0
			c2.43-1.007,4.361-2.938,5.368-5.369l3.794-9.163c2.028-4.896,5.841-8.708,10.736-10.736c4.897-2.028,10.289-2.027,15.183,0
			c10.105,4.186,14.922,15.812,10.737,25.918l-3.796,9.164c-1.008,2.43-1.008,5.162-0.001,7.592
			c1.008,2.431,2.938,4.361,5.368,5.368c4.896,2.027,8.708,5.84,10.736,10.736c1.98,4.78,2.026,10.033,0.14,14.836
			c-0.05-0.047-0.1-0.092-0.15-0.139c-2.202-2.088-4.433-4.152-6.714-6.168c-8.058-7.12-16.518-13.681-25.309-19.686l2.78-6.711
			c2.097-5.061-0.306-10.863-5.367-12.96c-5.062-2.097-10.863,0.307-12.959,5.368l-1.492,3.6c-3.522-2.022-7.088-3.961-10.696-5.812
			c-5.019-2.583-10.121-4.999-15.296-7.245C358.716,158.085,359.064,158.034,359.417,158.021z M255.995,127.06
			c31.408,0,60.947,6.723,81.622,18.105c-1.554,1.072-3.036,2.267-4.44,3.572c-19.231-6.029-39.076-9.749-59.252-11.135
			c-0.243-0.017-0.486-0.032-0.73-0.049c-1.554-0.102-3.109-0.191-4.668-0.266c-0.443-0.022-0.888-0.044-1.332-0.063
			c-1.414-0.06-2.83-0.107-4.247-0.145c-0.477-0.013-0.953-0.03-1.43-0.041c-1.839-0.039-3.679-0.062-5.522-0.062
			c-1.843,0-3.683,0.024-5.521,0.062c-0.477,0.01-0.954,0.028-1.431,0.041c-1.416,0.038-2.832,0.084-4.245,0.145
			c-0.444,0.02-0.889,0.042-1.333,0.063c-1.557,0.074-3.111,0.163-4.665,0.266c-0.244,0.016-0.489,0.031-0.733,0.049
			c-20.175,1.387-40.02,5.107-59.251,11.135c-1.404-1.304-2.886-2.499-4.441-3.572C195.05,133.782,224.587,127.06,255.995,127.06z
			 M89.302,182.297c5.061-2.096,7.464-7.898,5.368-12.959l-3.796-9.164c-4.186-10.106,0.63-21.732,10.736-25.918
			c2.448-1.014,5.02-1.521,7.592-1.521s5.144,0.507,7.591,1.521c4.896,2.027,8.708,5.84,10.736,10.736l3.796,9.164
			c2.097,5.06,7.897,7.463,12.96,5.368c2.658-1.101,5.437-1.588,8.17-1.511c0.042,0.002,0.081,0.008,0.123,0.009
			c0.353,0.013,0.701,0.063,1.052,0.095c-5.171,2.244-10.269,4.658-15.283,7.238c-3.612,1.853-7.182,3.794-10.709,5.818l-1.492-3.6
			c-2.097-5.061-7.897-7.463-12.96-5.368c-5.06,2.097-7.464,7.898-5.368,12.96l2.78,6.712c-8.791,6.006-17.251,12.565-25.308,19.686
			c-2.293,2.026-4.535,4.1-6.747,6.2c-0.039,0.037-0.078,0.071-0.116,0.108C74.491,197.845,79.312,186.435,89.302,182.297z
			 M57.627,226.243c1.041,0,2.078,0.055,3.106,0.162c-2.776,3.216-5.461,6.501-8.069,9.84c-0.234,0.3-0.463,0.603-0.696,0.904
			c-1.003,1.295-1.995,2.599-2.972,3.912c-0.392,0.526-0.779,1.055-1.165,1.584c-0.8,1.094-1.593,2.193-2.377,3.298
			c-0.471,0.664-0.939,1.331-1.404,2c-0.677,0.977-1.346,1.959-2.01,2.944c-0.517,0.767-1.034,1.532-1.542,2.304
			c-0.583,0.886-1.155,1.778-1.727,2.672c-0.551,0.86-1.107,1.718-1.648,2.585c-0.481,0.77-0.947,1.548-1.419,2.324
			c-1.659,2.721-3.285,5.462-4.843,8.244c-1.947-3.998-2.988-8.431-2.988-13.016C27.872,239.591,41.22,226.243,57.627,226.243z
			 M487.46,378.43c-3.629,4.137-8.865,6.51-14.366,6.51H38.902c-5.501,0-10.738-2.373-14.367-6.51
			c-3.292-3.753-4.908-8.436-4.664-13.327h57.593c5.478,0,9.919-4.441,9.919-9.919s-4.441-9.919-9.919-9.919H23.139
			C36.536,282.072,74.96,228.639,126.973,194.99c0.979-0.427,1.853-0.996,2.613-1.67c32.306-20.312,69.684-33.062,109.471-35.899
			c0.187-0.013,0.374-0.028,0.561-0.041c1.502-0.103,3.007-0.187,4.516-0.263c0.365-0.018,0.729-0.04,1.095-0.056
			c1.387-0.063,2.778-0.107,4.17-0.146c0.424-0.012,0.846-0.03,1.271-0.039c1.772-0.04,3.549-0.063,5.329-0.063
			c1.78,0,3.557,0.023,5.33,0.063c0.424,0.009,0.845,0.028,1.269,0.039c1.393,0.039,2.784,0.083,4.173,0.146
			c0.364,0.016,0.727,0.038,1.091,0.056c1.51,0.075,3.017,0.16,4.52,0.264c0.185,0.013,0.371,0.027,0.555,0.04
			c39.788,2.837,77.167,15.587,109.474,35.899c0.76,0.674,1.634,1.244,2.614,1.671c56.954,36.846,97.631,97.409,106.978,168.54
			C492.717,368.984,491.104,374.274,487.46,378.43z"/>
	</g>
</g>
<g>
	<g>
		<path d="M116.87,353.25c-0.129-0.635-0.317-1.26-0.565-1.855c-0.248-0.605-0.555-1.18-0.912-1.716
			c-0.367-0.546-0.784-1.051-1.24-1.508c-1.845-1.845-4.404-2.906-7.012-2.906s-5.168,1.061-7.012,2.906
			c-0.456,0.456-0.873,0.962-1.23,1.508c-0.357,0.536-0.664,1.111-0.912,1.716c-0.248,0.595-0.436,1.22-0.565,1.855
			c-0.129,0.635-0.198,1.289-0.198,1.934s0.069,1.299,0.198,1.934c0.129,0.635,0.317,1.26,0.565,1.865
			c0.248,0.595,0.555,1.17,0.912,1.706c0.357,0.546,0.774,1.051,1.23,1.508s0.962,0.873,1.508,1.23
			c0.536,0.357,1.111,0.665,1.716,0.913c0.595,0.248,1.22,0.446,1.855,0.565c0.635,0.129,1.289,0.198,1.934,0.198
			c0.645,0,1.299-0.069,1.944-0.198c0.625-0.119,1.25-0.317,1.855-0.565c0.595-0.248,1.17-0.555,1.706-0.913
			c0.546-0.357,1.051-0.774,1.508-1.23c0.456-0.456,0.873-0.962,1.24-1.508c0.357-0.536,0.665-1.111,0.912-1.706
			c0.248-0.605,0.436-1.23,0.565-1.865c0.129-0.635,0.188-1.289,0.188-1.934C117.058,354.539,116.999,353.885,116.87,353.25z"/>
	</g>
</g>
<g>
</g>
<g>
</g>
<g>
</g>
<g>
</g>
<g>
</g>
<g>
</g>
<g>
</g>
<g>
</g>
<g>
</g>
<g>
</g>
<g>
</g>
<g>
</g>
<g>
</g>
<g>
</g>
<g>
</g>
</svg>
