<?xml version="1.0" encoding="iso-8859-1"?>
<!-- Generator: Adobe Illustrator 19.0.0, SVG Export Plug-In . SVG Version: 6.00 Build 0)  -->
<svg version="1.1" id="Capa_1" xmlns="http://www.w3.org/2000/svg" xmlns:xlink="http://www.w3.org/1999/xlink" x="0px" y="0px"
	 viewBox="0 0 512.002 512.002" style="enable-background:new 0 0 512.002 512.002;" xml:space="preserve">
<g>
	<g>
		<path d="M440.227,224.683H416.15v-20.322c0-5.523-4.478-10-10-10h-74.718v-4.729c0-5.523-4.478-10-10-10s-10,4.477-10,10v4.729
			H83.973c-5.523,0-10,4.477-10,10v137.562c0,36.303,14.452,69.116,40.693,92.396c6.202,5.502,12.964,10.392,20.185,14.643H93.326
			H71.775c-5.523,0-10,4.477-10,10c0,5.523,4.477,10,10,10h17.111l35.153,38.878c2.393,2.645,5.812,4.162,9.378,4.162h223.288
			c3.566,0,6.985-1.517,9.382-4.165l35.15-38.874h17.111c5.522,0,10-4.477,10-10c0-5.523-4.478-10-10-10h-21.551h-41.525
			c7.222-4.251,13.983-9.141,20.186-14.643c25.848-22.931,40.246-55.114,40.672-90.769c20.895-11.138,34.097-32.841,34.097-56.873
			v-51.994C450.227,229.16,445.75,224.683,440.227,224.683z M331.432,214.361h64.718v41.9h-64.718V214.361z M339.888,312.2
			l14.94,24.874v43.585h-66.793v-43.585l14.94-24.874H339.888z M374.273,468.961l-20.832,23.04h-216.76l-20.833-23.04h95.576h67.274
			H374.273z M396.151,341.923c-0.001,62.021-49.396,107.039-117.452,107.039h-67.274c-68.056,0-117.451-45.016-117.451-107.039
			V214.361h217.459v41.9H176.064c-5.523,0-10,4.477-10,10c0,5.523,4.477,10,10,10h135.368v15.94h-14.116
			c-3.511,0-6.765,1.841-8.572,4.851l-19.281,32.102c-0.934,1.555-1.428,3.335-1.428,5.149v56.358c0,5.523,4.478,10,10,10h86.793
			c5.522,0,10-4.477,10-10v-56.358c0-1.814-0.493-3.594-1.428-5.149l-19.281-32.102c-1.808-3.01-5.062-4.851-8.572-4.851h-14.115
			v-15.94h64.718V341.923z M430.227,286.677c0,12.582-5.249,24.238-14.078,32.488v-74.482h14.078V286.677z"/>
	</g>
</g>
<g>
	<g>
		<path d="M376.25,13.008c-0.911-3.519-3.659-6.267-7.179-7.177c-0.097-0.025-0.332-0.085-0.695-0.174
			c-0.478-0.117-1.199-0.288-2.102-0.492c-0.32-0.072-0.666-0.149-1.036-0.23c-0.516-0.113-1.068-0.232-1.676-0.359
			c-11.303-2.36-38.174-6.868-64.835-3.173c-0.072,0.01-0.145,0.023-0.217,0.033c-1.026,0.144-2.052,0.297-3.077,0.466
			c-0.002,0-0.003,0.001-0.005,0.001c-0.004,0.001-0.009,0.001-0.013,0.002c-0.003,0.001-0.006,0.002-0.01,0.002
			c-3.548,0.579-7.02,1.306-10.337,2.168c-14.641,3.828-26.635,10.339-35.648,19.354c-9.564,9.564-15.49,21.647-18.991,34.438
			c-0.335-0.362-0.657-0.733-1.005-1.086c-27.599-28.042-83.93-13.716-86.315-13.093c-3.507,0.917-6.243,3.66-7.151,7.169
			c-0.614,2.375-14.73,58.462,13.043,86.235c13.63,13.629,34.077,17.171,51.649,17.171c18.237,0,33.378-3.814,34.587-4.128
			c0.61-0.158,1.187-0.388,1.746-0.652c0.637,0.323,1.303,0.599,2.011,0.782c1.699,0.439,23.115,5.835,48.719,5.835
			c24.302,0,52.376-4.861,70.948-23.432c9.022-9.022,15.531-21.022,19.349-35.673c0.877-3.376,1.609-6.855,2.175-10.321
			C386.004,51.375,376.651,14.558,376.25,13.008z M224.131,132.106c-16.219,3.031-46.661,5.169-60.986-9.157
			c-14.33-14.329-12.127-45.04-9.101-61.22c16.193-3.099,46.884-5.391,61.128,9.081c6.525,6.63,10.256,17.847,11.007,32.043
			c0.014,0.311,0.029,0.619,0.044,0.928C226.593,112.294,225.912,121.845,224.131,132.106z M344.52,118.525
			c-24.906,24.905-77.091,17.154-94.628,13.666c-1.193-6.004-2.884-16.065-3.595-27.699c-0.043-1.556-0.116-3.118-0.221-4.681
			c-0.765-21.495,2.231-46.981,17.489-62.24c5.565-5.565,12.962-9.861,22.014-12.809c-1.8,30.176,5.187,57.698,5.533,59.034
			c0.91,3.518,3.657,6.265,7.175,7.175c1.185,0.306,22.951,5.84,48.91,5.84c3.317,0,6.705-0.097,10.125-0.3
			C354.38,105.565,350.087,112.959,344.52,118.525z M362.072,63.289c-0.001,0.178-0.002,0.355-0.005,0.533
			c-0.006,0.549-0.016,1.099-0.029,1.65c-0.003,0.148-0.006,0.296-0.009,0.444c-0.016,0.634-0.036,1.271-0.061,1.908
			c-0.003,0.065-0.004,0.13-0.007,0.195c-0.057,1.437-0.135,2.881-0.237,4.329c-0.007,0.097-0.015,0.195-0.022,0.293
			c-0.044,0.6-0.091,1.2-0.143,1.8c-0.018,0.21-0.039,0.42-0.058,0.63c-0.033,0.355-0.067,0.71-0.103,1.066
			c-21.11,2.099-42.274-1.254-52.229-3.236c-1.982-9.945-5.335-31.054-3.216-52.212c0.353-0.035,0.705-0.07,1.057-0.102
			c0.211-0.019,0.421-0.04,0.631-0.058c0.599-0.052,1.199-0.098,1.797-0.142c0.097-0.007,0.194-0.015,0.291-0.022
			c1.45-0.102,2.897-0.18,4.338-0.236c0.027-0.001,0.055-0.002,0.082-0.003c0.678-0.026,1.355-0.047,2.031-0.064
			c0.108-0.003,0.216-0.004,0.324-0.007c0.597-0.014,1.192-0.024,1.786-0.031c0.134-0.002,0.268-0.002,0.402-0.003
			c0.571-0.005,1.141-0.007,1.708-0.006c0.137,0,0.273,0.001,0.409,0.001c0.573,0.003,1.145,0.008,1.713,0.017
			c0.12,0.002,0.239,0.003,0.358,0.006c0.605,0.01,1.208,0.024,1.808,0.04c0.075,0.002,0.151,0.004,0.225,0.006
			c3.47,0.1,6.841,0.301,10.052,0.568c0.026,0.002,0.051,0.004,0.077,0.007c0.606,0.051,1.207,0.104,1.801,0.158
			c0.06,0.005,0.119,0.011,0.178,0.017c0.563,0.052,1.121,0.107,1.673,0.163c0.069,0.007,0.137,0.014,0.205,0.021
			c0.55,0.056,1.094,0.115,1.632,0.174c0.058,0.006,0.116,0.013,0.173,0.019c0.556,0.062,1.106,0.126,1.648,0.19
			c0.035,0.004,0.07,0.008,0.105,0.013c2.337,0.28,4.543,0.585,6.586,0.895c0.026,0.004,0.05,0.008,0.076,0.012
			c0.468,0.071,0.927,0.143,1.378,0.214c0.08,0.013,0.158,0.025,0.237,0.038c0.391,0.063,0.775,0.125,1.152,0.188
			c0.107,0.018,0.213,0.035,0.319,0.053c0.34,0.057,0.675,0.114,1.003,0.17c0.123,0.021,0.247,0.042,0.368,0.064
			c0.304,0.053,0.601,0.106,0.893,0.158c0.127,0.023,0.255,0.046,0.38,0.068c0.29,0.052,0.573,0.104,0.852,0.156
			c0.11,0.02,0.223,0.041,0.331,0.061c0.291,0.054,0.572,0.108,0.849,0.161c0.088,0.017,0.18,0.034,0.267,0.051
			c0.358,0.069,0.704,0.137,1.037,0.203c0.066,0.332,0.134,0.679,0.204,1.036c0.018,0.091,0.036,0.189,0.054,0.282
			c0.051,0.267,0.103,0.536,0.155,0.816c0.025,0.132,0.05,0.27,0.075,0.404c0.047,0.252,0.094,0.506,0.141,0.767
			c0.027,0.151,0.055,0.305,0.082,0.459c0.047,0.259,0.093,0.521,0.14,0.789c0.028,0.157,0.055,0.317,0.083,0.477
			c0.048,0.28,0.097,0.565,0.145,0.853c0.027,0.16,0.054,0.32,0.081,0.483c0.049,0.298,0.099,0.603,0.149,0.91
			c0.026,0.16,0.052,0.319,0.078,0.482c0.055,0.346,0.11,0.7,0.165,1.057c0.019,0.126,0.039,0.251,0.058,0.379
			c0.07,0.462,0.14,0.933,0.21,1.412c0.004,0.03,0.009,0.059,0.013,0.089c0.152,1.048,0.301,2.135,0.445,3.256
			c0.011,0.085,0.022,0.173,0.033,0.259c0.059,0.461,0.117,0.927,0.174,1.399c0.017,0.143,0.034,0.287,0.051,0.431
			c0.051,0.429,0.101,0.862,0.15,1.299c0.018,0.155,0.035,0.312,0.052,0.469c0.048,0.434,0.095,0.871,0.14,1.312
			c0.017,0.161,0.033,0.322,0.049,0.484c0.045,0.446,0.089,0.897,0.132,1.351c0.015,0.16,0.03,0.319,0.045,0.48
			c0.044,0.478,0.086,0.96,0.127,1.445c0.012,0.136,0.023,0.271,0.035,0.407c0.046,0.555,0.09,1.114,0.131,1.678
			c0.005,0.069,0.01,0.136,0.015,0.205c0.142,1.951,0.258,3.954,0.341,5.998c0.003,0.084,0.006,0.168,0.009,0.252
			c0.023,0.581,0.043,1.164,0.06,1.751c0.004,0.145,0.008,0.291,0.012,0.437c0.014,0.529,0.026,1.06,0.035,1.594
			c0.003,0.174,0.005,0.349,0.008,0.524c0.007,0.514,0.012,1.029,0.015,1.547c0.001,0.182,0.001,0.365,0.002,0.548
			C362.079,62.246,362.077,62.767,362.072,63.289z"/>
	</g>
</g>
<g>
	<g>
		<path d="M145.032,264.304c-0.13-0.63-0.32-1.26-0.57-1.87c-0.25-0.6-0.56-1.18-0.92-1.72c-0.37-0.55-0.79-1.06-1.25-1.52
			c-0.46-0.47-0.97-0.88-1.52-1.25c-0.54-0.36-1.12-0.67-1.72-0.92c-0.61-0.25-1.23-0.44-1.87-0.57c-1.29-0.26-2.62-0.26-3.91,0
			c-0.64,0.13-1.27,0.32-1.87,0.57c-0.61,0.25-1.19,0.56-1.73,0.92c-0.55,0.37-1.06,0.78-1.52,1.25c-0.46,0.46-0.88,0.97-1.24,1.52
			c-0.36,0.54-0.67,1.12-0.92,1.72c-0.25,0.61-0.44,1.23-0.57,1.87c-0.13,0.65-0.2,1.3-0.2,1.96c0,0.65,0.07,1.31,0.2,1.95
			s0.32,1.27,0.57,1.87c0.25,0.61,0.56,1.19,0.92,1.73c0.36,0.55,0.78,1.059,1.24,1.52c0.46,0.46,0.97,0.88,1.52,1.24
			c0.54,0.36,1.12,0.67,1.73,0.92c0.6,0.25,1.23,0.44,1.87,0.57c0.64,0.13,1.3,0.2,1.95,0.2s1.31-0.07,1.96-0.2
			c0.64-0.13,1.26-0.32,1.87-0.57c0.6-0.25,1.18-0.56,1.72-0.92c0.55-0.36,1.06-0.78,1.52-1.24c0.46-0.461,0.88-0.97,1.25-1.52
			c0.36-0.54,0.67-1.12,0.92-1.73c0.25-0.6,0.44-1.23,0.57-1.87s0.19-1.3,0.19-1.95
			C145.222,265.604,145.162,264.954,145.032,264.304z"/>
	</g>
</g>
<g>
</g>
<g>
</g>
<g>
</g>
<g>
</g>
<g>
</g>
<g>
</g>
<g>
</g>
<g>
</g>
<g>
</g>
<g>
</g>
<g>
</g>
<g>
</g>
<g>
</g>
<g>
</g>
<g>
</g>
</svg>
